# xmcd CD database file
#
# Track frame offsets:
#	150
#	29520
#	57430
#	79582
#	112507
#	133942
#	150362
#	170865
#	199597
#	231747
#
# Disc length: 3601 seconds
#
# Revision: 0
# Processed by: cddbd v1.4PL0 Copyright (c) Steve Scherf et al.
# Submitted via: CDex 1.51
#
DISCID=820e0f0a
DTITLE=Mezzanotte - prendre o lasciare
DYEAR=1998
DGENRE=Jazz
TTITLE0=O Pato
TTITLE1=Ca Va?
TTITLE2=Take - A - Way
TTITLE3=The Summer Knows
TTITLE4=More Less
TTITLE5=Bop Be
TTITLE6=Prendere O Lasciare
TTITLE7=Estate
TTITLE8=So Tender
TTITLE9=When You Wish Upon A Star
EXTD=YEAR: 1998
EXTT0=
EXTT1=
EXTT2=
EXTT3=
EXTT4=
EXTT5=
EXTT6=
EXTT7=
EXTT8=
EXTT9=
PLAYORDER=
